<mxfile host="Electron" agent="Mozilla/5.0 (X11; Linux x86_64) AppleWebKit/537.36 (KHTML, like Gecko) draw.io/24.7.17 Chrome/128.0.6613.36 Electron/32.0.1 Safari/537.36" version="24.7.17">
  <diagram id="PzYZQuiGRQ9H5ZzBXcUX" name="Page-2">
    <mxGraphModel dx="2387" dy="1544" grid="0" gridSize="10" guides="1" tooltips="1" connect="1" arrows="1" fold="1" page="0" pageScale="1" pageWidth="850" pageHeight="1100" math="0" shadow="0">
      <root>
        <mxCell id="0" />
        <mxCell id="1" parent="0" />
        <mxCell id="j2yMQciIEG1WbHscZcJs-5" value="Welcome" style="shape=umlFrame;whiteSpace=wrap;html=1;pointerEvents=0;" parent="1" vertex="1">
          <mxGeometry x="100" y="140" width="410" height="380" as="geometry" />
        </mxCell>
        <mxCell id="j2yMQciIEG1WbHscZcJs-6" value="create a room" style="rounded=1;html=1;shadow=0;dashed=0;whiteSpace=wrap;fontSize=10;fillColor=#666666;align=center;strokeColor=#4D4D4D;fontColor=#ffffff;" parent="1" vertex="1">
          <mxGeometry x="160" y="430" width="105.5" height="16.88" as="geometry" />
        </mxCell>
        <mxCell id="j2yMQciIEG1WbHscZcJs-7" value="Join a room" style="rounded=1;html=1;shadow=0;dashed=0;whiteSpace=wrap;fontSize=10;fillColor=#666666;align=center;strokeColor=#4D4D4D;fontColor=#ffffff;" parent="1" vertex="1">
          <mxGeometry x="330" y="430" width="105.5" height="16.88" as="geometry" />
        </mxCell>
        <mxCell id="j2yMQciIEG1WbHscZcJs-13" value="Create" style="shape=umlFrame;whiteSpace=wrap;html=1;pointerEvents=0;" parent="1" vertex="1">
          <mxGeometry x="100" y="600" width="410" height="520" as="geometry" />
        </mxCell>
        <mxCell id="j2yMQciIEG1WbHscZcJs-15" value="" style="endArrow=classic;html=1;rounded=0;exitX=0.5;exitY=1;exitDx=0;exitDy=0;entryX=0.282;entryY=-0.016;entryDx=0;entryDy=0;entryPerimeter=0;" parent="1" source="j2yMQciIEG1WbHscZcJs-6" target="j2yMQciIEG1WbHscZcJs-13" edge="1">
          <mxGeometry width="50" height="50" relative="1" as="geometry">
            <mxPoint x="190" y="450" as="sourcePoint" />
            <mxPoint x="240" y="400" as="targetPoint" />
          </mxGeometry>
        </mxCell>
        <mxCell id="j2yMQciIEG1WbHscZcJs-24" value="" style="group" parent="1" vertex="1" connectable="0">
          <mxGeometry x="120" y="690" width="260" height="40" as="geometry" />
        </mxCell>
        <mxCell id="j2yMQciIEG1WbHscZcJs-20" value="Username" style="fillColor=none;strokeColor=none;align=left;fontSize=14;fontColor=#212529;" parent="j2yMQciIEG1WbHscZcJs-24" vertex="1">
          <mxGeometry width="260" height="40" as="geometry" />
        </mxCell>
        <mxCell id="j2yMQciIEG1WbHscZcJs-21" value="input a username" style="html=1;shadow=0;dashed=0;shape=mxgraph.bootstrap.rrect;rSize=5;fillColor=none;strokeColor=#999999;align=left;spacing=15;fontSize=14;fontColor=#6C767D;" parent="j2yMQciIEG1WbHscZcJs-24" vertex="1">
          <mxGeometry width="340" height="30" relative="1" as="geometry">
            <mxPoint y="40" as="offset" />
          </mxGeometry>
        </mxCell>
        <mxCell id="j2yMQciIEG1WbHscZcJs-22" value="Group name" style="fillColor=none;strokeColor=none;align=left;fontSize=14;fontColor=#212529;" parent="j2yMQciIEG1WbHscZcJs-24" vertex="1">
          <mxGeometry width="260" height="40" relative="1" as="geometry">
            <mxPoint y="80" as="offset" />
          </mxGeometry>
        </mxCell>
        <mxCell id="j2yMQciIEG1WbHscZcJs-23" value="input a group name" style="html=1;shadow=0;dashed=0;shape=mxgraph.bootstrap.rrect;rSize=5;fillColor=none;strokeColor=#999999;align=left;spacing=15;fontSize=14;fontColor=#6C767D;" parent="j2yMQciIEG1WbHscZcJs-24" vertex="1">
          <mxGeometry width="350" height="30" relative="1" as="geometry">
            <mxPoint y="120" as="offset" />
          </mxGeometry>
        </mxCell>
        <mxCell id="j2yMQciIEG1WbHscZcJs-27" value="Duration" style="fillColor=none;strokeColor=none;align=left;fontSize=14;fontColor=#212529;" parent="1" vertex="1">
          <mxGeometry x="120" y="850" width="260" height="40" as="geometry" />
        </mxCell>
        <mxCell id="j2yMQciIEG1WbHscZcJs-29" value="30 minutes" style="strokeWidth=1;shadow=0;dashed=0;align=center;html=1;shape=mxgraph.mockup.forms.comboBox;strokeColor=#999999;fillColor=#ddeeff;align=left;fillColor2=#aaddff;mainText=;fontColor=#666666;fontSize=17;spacingLeft=3;" parent="1" vertex="1">
          <mxGeometry x="120" y="900" width="150" height="30" as="geometry" />
        </mxCell>
        <mxCell id="j2yMQciIEG1WbHscZcJs-32" value="Maximum members" style="fillColor=none;strokeColor=none;align=left;fontSize=14;fontColor=#212529;" parent="1" vertex="1">
          <mxGeometry x="120" y="940" width="260" height="40" as="geometry" />
        </mxCell>
        <mxCell id="j2yMQciIEG1WbHscZcJs-34" value="30 people&amp;nbsp;" style="strokeWidth=1;shadow=0;dashed=0;align=center;html=1;shape=mxgraph.mockup.forms.comboBox;strokeColor=#999999;fillColor=#ddeeff;align=left;fillColor2=#aaddff;mainText=;fontColor=#666666;fontSize=17;spacingLeft=3;" parent="1" vertex="1">
          <mxGeometry x="120" y="990" width="150" height="30" as="geometry" />
        </mxCell>
        <mxCell id="j2yMQciIEG1WbHscZcJs-35" value="Create" style="rounded=1;fillColor=#0057D8;strokeColor=none;html=1;whiteSpace=wrap;fontColor=#ffffff;align=center;verticalAlign=middle;fontStyle=0;fontSize=12;sketch=0;" parent="1" vertex="1">
          <mxGeometry x="262" y="1070" width="86" height="33" as="geometry" />
        </mxCell>
        <mxCell id="j2yMQciIEG1WbHscZcJs-36" value="A new member need to be approved to join" style="rounded=1;fillColor=#F0F2F5;strokeColor=#D8DCE3;align=left;verticalAlign=middle;fontStyle=0;fontSize=12;labelPosition=right;verticalLabelPosition=middle;spacingLeft=10;html=1;shadow=0;dashed=0" parent="1" vertex="1">
          <mxGeometry x="120" y="1040" width="12" height="12" as="geometry" />
        </mxCell>
        <mxCell id="j2yMQciIEG1WbHscZcJs-38" value="Join a group" style="shape=umlFrame;whiteSpace=wrap;html=1;pointerEvents=0;" parent="1" vertex="1">
          <mxGeometry x="660" y="600" width="410" height="420" as="geometry" />
        </mxCell>
        <mxCell id="j2yMQciIEG1WbHscZcJs-39" value="" style="endArrow=classic;html=1;rounded=0;exitX=0.5;exitY=1;exitDx=0;exitDy=0;entryX=0.502;entryY=-0.01;entryDx=0;entryDy=0;entryPerimeter=0;" parent="1" source="j2yMQciIEG1WbHscZcJs-7" target="j2yMQciIEG1WbHscZcJs-38" edge="1">
          <mxGeometry width="50" height="50" relative="1" as="geometry">
            <mxPoint x="830" y="420" as="sourcePoint" />
            <mxPoint x="880" y="370" as="targetPoint" />
          </mxGeometry>
        </mxCell>
        <mxCell id="j2yMQciIEG1WbHscZcJs-42" value="Group code" style="fillColor=none;strokeColor=none;align=left;fontSize=14;fontColor=#212529;" parent="1" vertex="1">
          <mxGeometry x="680" y="675" width="260" height="40" as="geometry" />
        </mxCell>
        <mxCell id="j2yMQciIEG1WbHscZcJs-43" value="input a group code" style="html=1;shadow=0;dashed=0;shape=mxgraph.bootstrap.rrect;rSize=5;fillColor=none;strokeColor=#999999;align=left;spacing=15;fontSize=14;fontColor=#6C767D;" parent="1" vertex="1">
          <mxGeometry x="680" y="715" width="360" height="30" as="geometry" />
        </mxCell>
        <mxCell id="j2yMQciIEG1WbHscZcJs-44" value="Join" style="rounded=1;fillColor=#0057D8;strokeColor=none;html=1;whiteSpace=wrap;fontColor=#ffffff;align=center;verticalAlign=middle;fontStyle=0;fontSize=12;sketch=0;" parent="1" vertex="1">
          <mxGeometry x="822" y="970" width="86" height="33" as="geometry" />
        </mxCell>
        <mxCell id="j2yMQciIEG1WbHscZcJs-46" value="Username" style="fillColor=none;strokeColor=none;align=left;fontSize=14;fontColor=#212529;" parent="1" vertex="1">
          <mxGeometry x="680" y="770" width="260" height="40" as="geometry" />
        </mxCell>
        <mxCell id="j2yMQciIEG1WbHscZcJs-48" value="input a username" style="html=1;shadow=0;dashed=0;shape=mxgraph.bootstrap.rrect;rSize=5;fillColor=none;strokeColor=#999999;align=left;spacing=15;fontSize=14;fontColor=#6C767D;" parent="1" vertex="1">
          <mxGeometry x="680" y="810" width="360" height="30" as="geometry" />
        </mxCell>
        <mxCell id="j2yMQciIEG1WbHscZcJs-50" value="Message" style="fillColor=none;strokeColor=none;align=left;fontSize=14;fontColor=#212529;" parent="1" vertex="1">
          <mxGeometry x="680" y="860" width="360" height="30" as="geometry" />
        </mxCell>
        <mxCell id="j2yMQciIEG1WbHscZcJs-51" value="input a Message" style="html=1;shadow=0;dashed=0;shape=mxgraph.bootstrap.rrect;rSize=5;fillColor=none;strokeColor=#999999;align=left;spacing=15;fontSize=14;fontColor=#6C767D;" parent="1" vertex="1">
          <mxGeometry x="680" y="900" width="360" height="30" as="geometry" />
        </mxCell>
        <mxCell id="j2yMQciIEG1WbHscZcJs-52" value="Wating" style="shape=umlFrame;whiteSpace=wrap;html=1;pointerEvents=0;" parent="1" vertex="1">
          <mxGeometry x="1160" y="590" width="410" height="420" as="geometry" />
        </mxCell>
        <mxCell id="j2yMQciIEG1WbHscZcJs-53" value="" style="endArrow=classic;html=1;rounded=0;exitX=1;exitY=0.5;exitDx=0;exitDy=0;entryX=0;entryY=0.936;entryDx=0;entryDy=0;entryPerimeter=0;" parent="1" source="j2yMQciIEG1WbHscZcJs-44" target="j2yMQciIEG1WbHscZcJs-52" edge="1">
          <mxGeometry width="50" height="50" relative="1" as="geometry">
            <mxPoint x="1150" y="1000" as="sourcePoint" />
            <mxPoint x="1200" y="950" as="targetPoint" />
          </mxGeometry>
        </mxCell>
        <mxCell id="j2yMQciIEG1WbHscZcJs-54" value="Wating for approving by host&amp;nbsp;" style="text;strokeColor=none;fillColor=none;html=1;fontSize=24;fontStyle=1;verticalAlign=middle;align=center;" parent="1" vertex="1">
          <mxGeometry x="1315" y="770" width="100" height="40" as="geometry" />
        </mxCell>
        <mxCell id="j2yMQciIEG1WbHscZcJs-55" value="chat room" style="shape=umlFrame;whiteSpace=wrap;html=1;pointerEvents=0;" parent="1" vertex="1">
          <mxGeometry x="1840" y="50" width="600" height="870" as="geometry" />
        </mxCell>
        <mxCell id="j2yMQciIEG1WbHscZcJs-56" value="Room Name" style="text;strokeColor=none;fillColor=none;html=1;fontSize=24;fontStyle=1;verticalAlign=middle;align=center;" parent="1" vertex="1">
          <mxGeometry x="1890" y="110" width="100" height="40" as="geometry" />
        </mxCell>
        <mxCell id="j2yMQciIEG1WbHscZcJs-66" value="" style="group" parent="1" vertex="1" connectable="0">
          <mxGeometry x="1870" y="195" width="550" height="50" as="geometry" />
        </mxCell>
        <mxCell id="j2yMQciIEG1WbHscZcJs-60" value="This is a message&amp;nbsp;" style="rounded=1;whiteSpace=wrap;html=1;fontSize=18;fillColor=#f5f5f5;fontColor=#333333;strokeColor=#666666;" parent="j2yMQciIEG1WbHscZcJs-66" vertex="1">
          <mxGeometry y="5" width="470" height="40" as="geometry" />
        </mxCell>
        <mxCell id="j2yMQciIEG1WbHscZcJs-61" value="ME" style="ellipse;whiteSpace=wrap;html=1;aspect=fixed;fillColor=#dae8fc;strokeColor=#6c8ebf;" parent="j2yMQciIEG1WbHscZcJs-66" vertex="1">
          <mxGeometry x="498.1132075471698" width="50" height="50" as="geometry" />
        </mxCell>
        <mxCell id="j2yMQciIEG1WbHscZcJs-67" value="" style="group" parent="1" vertex="1" connectable="0">
          <mxGeometry x="1840" y="290" width="560" height="50" as="geometry" />
        </mxCell>
        <mxCell id="j2yMQciIEG1WbHscZcJs-62" value="This is a message&amp;nbsp;" style="rounded=1;whiteSpace=wrap;html=1;fontSize=18;fillColor=#fff2cc;strokeColor=#d6b656;" parent="j2yMQciIEG1WbHscZcJs-67" vertex="1">
          <mxGeometry x="70" y="5" width="490" height="40" as="geometry" />
        </mxCell>
        <mxCell id="j2yMQciIEG1WbHscZcJs-65" value="HL" style="ellipse;whiteSpace=wrap;html=1;aspect=fixed;fillColor=#e1d5e7;strokeColor=#9673a6;" parent="j2yMQciIEG1WbHscZcJs-67" vertex="1">
          <mxGeometry width="50" height="50" as="geometry" />
        </mxCell>
        <mxCell id="j2yMQciIEG1WbHscZcJs-68" value="" style="group" parent="1" vertex="1" connectable="0">
          <mxGeometry x="1870" y="370" width="550" height="50" as="geometry" />
        </mxCell>
        <mxCell id="j2yMQciIEG1WbHscZcJs-69" value="This is a message&amp;nbsp;" style="rounded=1;whiteSpace=wrap;html=1;fontSize=18;fillColor=#f5f5f5;fontColor=#333333;strokeColor=#666666;" parent="j2yMQciIEG1WbHscZcJs-68" vertex="1">
          <mxGeometry y="5" width="470" height="40" as="geometry" />
        </mxCell>
        <mxCell id="j2yMQciIEG1WbHscZcJs-70" value="ME" style="ellipse;whiteSpace=wrap;html=1;aspect=fixed;fillColor=#dae8fc;strokeColor=#6c8ebf;" parent="j2yMQciIEG1WbHscZcJs-68" vertex="1">
          <mxGeometry x="498.1132075471698" width="50" height="50" as="geometry" />
        </mxCell>
        <mxCell id="j2yMQciIEG1WbHscZcJs-71" value="" style="group" parent="1" vertex="1" connectable="0">
          <mxGeometry x="1870" y="460" width="550" height="50" as="geometry" />
        </mxCell>
        <mxCell id="j2yMQciIEG1WbHscZcJs-72" value="This is a message&amp;nbsp;" style="rounded=1;whiteSpace=wrap;html=1;fontSize=18;fillColor=#f5f5f5;fontColor=#333333;strokeColor=#666666;" parent="j2yMQciIEG1WbHscZcJs-71" vertex="1">
          <mxGeometry y="5" width="470" height="40" as="geometry" />
        </mxCell>
        <mxCell id="j2yMQciIEG1WbHscZcJs-73" value="ME" style="ellipse;whiteSpace=wrap;html=1;aspect=fixed;fillColor=#dae8fc;strokeColor=#6c8ebf;" parent="j2yMQciIEG1WbHscZcJs-71" vertex="1">
          <mxGeometry x="498.1132075471698" width="50" height="50" as="geometry" />
        </mxCell>
        <mxCell id="j2yMQciIEG1WbHscZcJs-77" value="" style="group" parent="1" vertex="1" connectable="0">
          <mxGeometry x="1850" y="560" width="560" height="50" as="geometry" />
        </mxCell>
        <mxCell id="j2yMQciIEG1WbHscZcJs-78" value="This is a message&amp;nbsp;" style="rounded=1;whiteSpace=wrap;html=1;fontSize=18;fillColor=#fff2cc;strokeColor=#d6b656;" parent="j2yMQciIEG1WbHscZcJs-77" vertex="1">
          <mxGeometry x="70" y="5" width="490" height="40" as="geometry" />
        </mxCell>
        <mxCell id="j2yMQciIEG1WbHscZcJs-79" value="HL" style="ellipse;whiteSpace=wrap;html=1;aspect=fixed;fillColor=#e1d5e7;strokeColor=#9673a6;" parent="j2yMQciIEG1WbHscZcJs-77" vertex="1">
          <mxGeometry width="50" height="50" as="geometry" />
        </mxCell>
        <mxCell id="j2yMQciIEG1WbHscZcJs-80" value="Input a message" style="strokeWidth=1;html=1;shadow=0;dashed=0;shape=mxgraph.ios.iTextInput;strokeColor=#444444;buttonText=;fontSize=20;whiteSpace=wrap;align=left;" parent="1" vertex="1">
          <mxGeometry x="1880" y="845" width="410" height="40" as="geometry" />
        </mxCell>
        <mxCell id="j2yMQciIEG1WbHscZcJs-83" value="" style="group;fillColor=#dae8fc;strokeColor=#6c8ebf;rounded=1;shadow=1;" parent="1" vertex="1" connectable="0">
          <mxGeometry x="2350" y="842" width="80" height="45" as="geometry" />
        </mxCell>
        <mxCell id="j2yMQciIEG1WbHscZcJs-81" value="" style="html=1;verticalLabelPosition=bottom;align=center;labelBackgroundColor=#ffffff;verticalAlign=top;strokeWidth=2;strokeColor=#0080F0;shadow=0;dashed=0;shape=mxgraph.ios7.icons.pointer;" parent="j2yMQciIEG1WbHscZcJs-83" vertex="1">
          <mxGeometry x="26.666666666666664" y="11.25" width="26.666666666666664" height="22.5" as="geometry" />
        </mxCell>
        <mxCell id="j2yMQciIEG1WbHscZcJs-84" value="" style="sketch=0;pointerEvents=1;shadow=0;dashed=0;html=1;strokeColor=none;fillColor=#505050;labelPosition=center;verticalLabelPosition=bottom;verticalAlign=top;outlineConnect=0;align=center;shape=mxgraph.office.concepts.attachment;" parent="1" vertex="1">
          <mxGeometry x="2310" y="843" width="22" height="44" as="geometry" />
        </mxCell>
        <mxCell id="j2yMQciIEG1WbHscZcJs-86" value="" style="shape=image;html=1;verticalAlign=top;verticalLabelPosition=bottom;labelBackgroundColor=#ffffff;imageAspect=0;aspect=fixed;image=https://cdn3.iconfinder.com/data/icons/user-interface-169/32/logout-128.png;imageBackground=#FF3333;" parent="1" vertex="1">
          <mxGeometry x="2340" y="70" width="60" height="60" as="geometry" />
        </mxCell>
        <mxCell id="j2yMQciIEG1WbHscZcJs-87" value="Waiting list" style="rounded=1;fillColor=#dae8fc;strokeColor=#6c8ebf;html=1;whiteSpace=wrap;align=center;verticalAlign=middle;fontStyle=0;fontSize=12;sketch=0;" parent="1" vertex="1">
          <mxGeometry x="2200" y="78" width="86" height="33" as="geometry" />
        </mxCell>
        <mxCell id="j2yMQciIEG1WbHscZcJs-138" value="" style="group" parent="1" vertex="1" connectable="0">
          <mxGeometry x="2570" y="10" width="600" height="870" as="geometry" />
        </mxCell>
        <mxCell id="j2yMQciIEG1WbHscZcJs-112" value="chat room" style="shape=umlFrame;whiteSpace=wrap;html=1;pointerEvents=0;textOpacity=80;" parent="j2yMQciIEG1WbHscZcJs-138" vertex="1">
          <mxGeometry width="600" height="870" as="geometry" />
        </mxCell>
        <mxCell id="j2yMQciIEG1WbHscZcJs-117" value="" style="group;textOpacity=80;" parent="j2yMQciIEG1WbHscZcJs-138" vertex="1" connectable="0">
          <mxGeometry y="240" width="560" height="50" as="geometry" />
        </mxCell>
        <mxCell id="j2yMQciIEG1WbHscZcJs-118" value="This is a message&amp;nbsp;" style="rounded=1;whiteSpace=wrap;html=1;fontSize=18;fillColor=#fff2cc;strokeColor=#d6b656;" parent="j2yMQciIEG1WbHscZcJs-117" vertex="1">
          <mxGeometry x="70" y="5" width="490" height="40" as="geometry" />
        </mxCell>
        <mxCell id="j2yMQciIEG1WbHscZcJs-119" value="HL" style="ellipse;whiteSpace=wrap;html=1;aspect=fixed;fillColor=#e1d5e7;strokeColor=#9673a6;" parent="j2yMQciIEG1WbHscZcJs-117" vertex="1">
          <mxGeometry width="50" height="50" as="geometry" />
        </mxCell>
        <mxCell id="j2yMQciIEG1WbHscZcJs-123" value="" style="group;textOpacity=80;" parent="j2yMQciIEG1WbHscZcJs-138" vertex="1" connectable="0">
          <mxGeometry x="30" y="410" width="550" height="50" as="geometry" />
        </mxCell>
        <mxCell id="j2yMQciIEG1WbHscZcJs-124" value="This is a message&amp;nbsp;" style="rounded=1;whiteSpace=wrap;html=1;fontSize=18;fillColor=#f5f5f5;fontColor=#333333;strokeColor=#666666;" parent="j2yMQciIEG1WbHscZcJs-123" vertex="1">
          <mxGeometry y="5" width="470" height="40" as="geometry" />
        </mxCell>
        <mxCell id="j2yMQciIEG1WbHscZcJs-125" value="ME" style="ellipse;whiteSpace=wrap;html=1;aspect=fixed;fillColor=#dae8fc;strokeColor=#6c8ebf;" parent="j2yMQciIEG1WbHscZcJs-123" vertex="1">
          <mxGeometry x="498.1132075471698" width="50" height="50" as="geometry" />
        </mxCell>
        <mxCell id="j2yMQciIEG1WbHscZcJs-120" value="" style="group;textOpacity=80;" parent="j2yMQciIEG1WbHscZcJs-138" vertex="1" connectable="0">
          <mxGeometry x="30" y="320" width="550" height="330" as="geometry" />
        </mxCell>
        <mxCell id="j2yMQciIEG1WbHscZcJs-121" value="This is a message&amp;nbsp;" style="rounded=1;whiteSpace=wrap;html=1;fontSize=18;fillColor=#f5f5f5;fontColor=#333333;strokeColor=#666666;" parent="j2yMQciIEG1WbHscZcJs-120" vertex="1">
          <mxGeometry y="5" width="470" height="40" as="geometry" />
        </mxCell>
        <mxCell id="j2yMQciIEG1WbHscZcJs-122" value="ME" style="ellipse;whiteSpace=wrap;html=1;aspect=fixed;fillColor=#dae8fc;strokeColor=#6c8ebf;" parent="j2yMQciIEG1WbHscZcJs-120" vertex="1">
          <mxGeometry x="498.1132075471698" width="50" height="50" as="geometry" />
        </mxCell>
        <mxCell id="j2yMQciIEG1WbHscZcJs-113" value="Room Name" style="text;strokeColor=none;fillColor=none;html=1;fontSize=24;fontStyle=1;verticalAlign=middle;align=center;textOpacity=80;" parent="j2yMQciIEG1WbHscZcJs-138" vertex="1">
          <mxGeometry x="50" y="60" width="100" height="40" as="geometry" />
        </mxCell>
        <mxCell id="j2yMQciIEG1WbHscZcJs-114" value="" style="group;textOpacity=80;" parent="j2yMQciIEG1WbHscZcJs-138" vertex="1" connectable="0">
          <mxGeometry x="30" y="145" width="570" height="365" as="geometry" />
        </mxCell>
        <mxCell id="j2yMQciIEG1WbHscZcJs-115" value="This is a message&amp;nbsp;" style="rounded=1;whiteSpace=wrap;html=1;fontSize=18;fillColor=#f5f5f5;fontColor=#333333;strokeColor=#666666;" parent="j2yMQciIEG1WbHscZcJs-114" vertex="1">
          <mxGeometry y="5" width="470" height="40" as="geometry" />
        </mxCell>
        <mxCell id="j2yMQciIEG1WbHscZcJs-116" value="ME" style="ellipse;whiteSpace=wrap;html=1;aspect=fixed;fillColor=#dae8fc;strokeColor=#6c8ebf;" parent="j2yMQciIEG1WbHscZcJs-114" vertex="1">
          <mxGeometry x="498.1132075471698" width="50" height="50" as="geometry" />
        </mxCell>
        <mxCell id="j2yMQciIEG1WbHscZcJs-126" value="" style="group;textOpacity=80;" parent="j2yMQciIEG1WbHscZcJs-138" vertex="1" connectable="0">
          <mxGeometry x="10" y="510" width="560" height="50" as="geometry" />
        </mxCell>
        <mxCell id="j2yMQciIEG1WbHscZcJs-127" value="This is a message&amp;nbsp;" style="rounded=1;whiteSpace=wrap;html=1;fontSize=18;fillColor=#fff2cc;strokeColor=#d6b656;" parent="j2yMQciIEG1WbHscZcJs-126" vertex="1">
          <mxGeometry x="70" y="5" width="490" height="40" as="geometry" />
        </mxCell>
        <mxCell id="j2yMQciIEG1WbHscZcJs-128" value="HL" style="ellipse;whiteSpace=wrap;html=1;aspect=fixed;fillColor=#e1d5e7;strokeColor=#9673a6;" parent="j2yMQciIEG1WbHscZcJs-126" vertex="1">
          <mxGeometry width="50" height="50" as="geometry" />
        </mxCell>
        <mxCell id="j2yMQciIEG1WbHscZcJs-129" value="Input a message" style="strokeWidth=1;html=1;shadow=0;dashed=0;shape=mxgraph.ios.iTextInput;strokeColor=#444444;buttonText=;fontSize=20;whiteSpace=wrap;align=left;textOpacity=80;" parent="j2yMQciIEG1WbHscZcJs-138" vertex="1">
          <mxGeometry x="40" y="795" width="410" height="40" as="geometry" />
        </mxCell>
        <mxCell id="j2yMQciIEG1WbHscZcJs-130" value="" style="group;fillColor=#dae8fc;strokeColor=#6c8ebf;rounded=1;shadow=1;textOpacity=80;" parent="j2yMQciIEG1WbHscZcJs-138" vertex="1" connectable="0">
          <mxGeometry x="510" y="792" width="80" height="45" as="geometry" />
        </mxCell>
        <mxCell id="j2yMQciIEG1WbHscZcJs-131" value="" style="html=1;verticalLabelPosition=bottom;align=center;labelBackgroundColor=#ffffff;verticalAlign=top;strokeWidth=2;strokeColor=#0080F0;shadow=0;dashed=0;shape=mxgraph.ios7.icons.pointer;" parent="j2yMQciIEG1WbHscZcJs-130" vertex="1">
          <mxGeometry x="26.666666666666664" y="11.25" width="26.666666666666664" height="22.5" as="geometry" />
        </mxCell>
        <mxCell id="j2yMQciIEG1WbHscZcJs-132" value="" style="sketch=0;pointerEvents=1;shadow=0;dashed=0;html=1;strokeColor=none;fillColor=#505050;labelPosition=center;verticalLabelPosition=bottom;verticalAlign=top;outlineConnect=0;align=center;shape=mxgraph.office.concepts.attachment;textOpacity=80;" parent="j2yMQciIEG1WbHscZcJs-138" vertex="1">
          <mxGeometry x="470" y="793" width="22" height="44" as="geometry" />
        </mxCell>
        <mxCell id="j2yMQciIEG1WbHscZcJs-133" value="" style="shape=image;html=1;verticalAlign=top;verticalLabelPosition=bottom;labelBackgroundColor=#ffffff;imageAspect=0;aspect=fixed;image=https://cdn3.iconfinder.com/data/icons/user-interface-169/32/logout-128.png;imageBackground=#FF3333;textOpacity=80;" parent="j2yMQciIEG1WbHscZcJs-138" vertex="1">
          <mxGeometry x="500" y="20" width="60" height="60" as="geometry" />
        </mxCell>
        <mxCell id="j2yMQciIEG1WbHscZcJs-134" value="Waiting list" style="rounded=1;fillColor=#dae8fc;strokeColor=#6c8ebf;html=1;whiteSpace=wrap;align=center;verticalAlign=middle;fontStyle=0;fontSize=12;sketch=0;textOpacity=80;" parent="j2yMQciIEG1WbHscZcJs-138" vertex="1">
          <mxGeometry x="360" y="28" width="86" height="33" as="geometry" />
        </mxCell>
        <mxCell id="j2yMQciIEG1WbHscZcJs-137" value="Wating list" style="strokeWidth=1;shadow=1;dashed=0;align=center;html=1;shape=mxgraph.mockup.containers.window;align=left;verticalAlign=top;spacingLeft=8;strokeColor2=#008cff;strokeColor3=#c4c4c4;fontColor=#666666;mainText=;fontSize=17;labelBackgroundColor=none;whiteSpace=wrap;" parent="1" vertex="1">
          <mxGeometry x="3350" y="100" width="570" height="557.5" as="geometry" />
        </mxCell>
        <mxCell id="j2yMQciIEG1WbHscZcJs-148" value="" style="group" parent="1" vertex="1" connectable="0">
          <mxGeometry x="3410" y="180" width="320" height="60" as="geometry" />
        </mxCell>
        <mxCell id="j2yMQciIEG1WbHscZcJs-140" value="" style="rounded=1;whiteSpace=wrap;html=1;" parent="j2yMQciIEG1WbHscZcJs-148" vertex="1">
          <mxGeometry width="320" height="60" as="geometry" />
        </mxCell>
        <mxCell id="j2yMQciIEG1WbHscZcJs-146" value="Hoang linh" style="text;html=1;align=left;verticalAlign=middle;whiteSpace=wrap;rounded=0;fontStyle=1" parent="j2yMQciIEG1WbHscZcJs-148" vertex="1">
          <mxGeometry width="110" height="30" as="geometry" />
        </mxCell>
        <mxCell id="j2yMQciIEG1WbHscZcJs-147" value="&lt;span style=&quot;font-weight: normal;&quot;&gt;I want to join to learn how to get rich&lt;/span&gt;" style="text;html=1;align=left;verticalAlign=middle;whiteSpace=wrap;rounded=0;fontStyle=1" parent="j2yMQciIEG1WbHscZcJs-148" vertex="1">
          <mxGeometry y="30" width="310" height="30" as="geometry" />
        </mxCell>
        <mxCell id="j2yMQciIEG1WbHscZcJs-149" value="" style="group" parent="1" vertex="1" connectable="0">
          <mxGeometry x="3750" y="180" width="140" height="60" as="geometry" />
        </mxCell>
        <mxCell id="j2yMQciIEG1WbHscZcJs-143" value="" style="shape=image;html=1;verticalAlign=top;verticalLabelPosition=bottom;labelBackgroundColor=#ffffff;imageAspect=0;aspect=fixed;image=https://cdn4.iconfinder.com/data/icons/essentials-72/24/040_-_Tick-128.png" parent="j2yMQciIEG1WbHscZcJs-149" vertex="1">
          <mxGeometry y="2" width="58" height="58" as="geometry" />
        </mxCell>
        <mxCell id="j2yMQciIEG1WbHscZcJs-145" value="" style="shape=image;html=1;verticalAlign=top;verticalLabelPosition=bottom;labelBackgroundColor=#ffffff;imageAspect=0;aspect=fixed;image=https://cdn1.iconfinder.com/data/icons/CrystalClear/128x128/actions/exit.png" parent="j2yMQciIEG1WbHscZcJs-149" vertex="1">
          <mxGeometry x="80" width="60" height="60" as="geometry" />
        </mxCell>
        <mxCell id="j2yMQciIEG1WbHscZcJs-150" value="" style="rounded=1;whiteSpace=wrap;html=1;" parent="1" vertex="1">
          <mxGeometry x="3400" y="290" width="320" height="60" as="geometry" />
        </mxCell>
        <mxCell id="j2yMQciIEG1WbHscZcJs-151" value="" style="group" parent="1" vertex="1" connectable="0">
          <mxGeometry x="3750" y="290" width="140" height="60" as="geometry" />
        </mxCell>
        <mxCell id="j2yMQciIEG1WbHscZcJs-152" value="" style="shape=image;html=1;verticalAlign=top;verticalLabelPosition=bottom;labelBackgroundColor=#ffffff;imageAspect=0;aspect=fixed;image=https://cdn4.iconfinder.com/data/icons/essentials-72/24/040_-_Tick-128.png" parent="j2yMQciIEG1WbHscZcJs-151" vertex="1">
          <mxGeometry y="2" width="58" height="58" as="geometry" />
        </mxCell>
        <mxCell id="j2yMQciIEG1WbHscZcJs-153" value="" style="shape=image;html=1;verticalAlign=top;verticalLabelPosition=bottom;labelBackgroundColor=#ffffff;imageAspect=0;aspect=fixed;image=https://cdn1.iconfinder.com/data/icons/CrystalClear/128x128/actions/exit.png" parent="j2yMQciIEG1WbHscZcJs-151" vertex="1">
          <mxGeometry x="80" width="60" height="60" as="geometry" />
        </mxCell>
        <mxCell id="j2yMQciIEG1WbHscZcJs-154" value="" style="rounded=1;whiteSpace=wrap;html=1;" parent="1" vertex="1">
          <mxGeometry x="3400" y="420" width="320" height="60" as="geometry" />
        </mxCell>
        <mxCell id="j2yMQciIEG1WbHscZcJs-155" value="" style="group" parent="1" vertex="1" connectable="0">
          <mxGeometry x="3750" y="420" width="140" height="60" as="geometry" />
        </mxCell>
        <mxCell id="j2yMQciIEG1WbHscZcJs-156" value="" style="shape=image;html=1;verticalAlign=top;verticalLabelPosition=bottom;labelBackgroundColor=#ffffff;imageAspect=0;aspect=fixed;image=https://cdn4.iconfinder.com/data/icons/essentials-72/24/040_-_Tick-128.png" parent="j2yMQciIEG1WbHscZcJs-155" vertex="1">
          <mxGeometry y="2" width="58" height="58" as="geometry" />
        </mxCell>
        <mxCell id="j2yMQciIEG1WbHscZcJs-157" value="" style="shape=image;html=1;verticalAlign=top;verticalLabelPosition=bottom;labelBackgroundColor=#ffffff;imageAspect=0;aspect=fixed;image=https://cdn1.iconfinder.com/data/icons/CrystalClear/128x128/actions/exit.png" parent="j2yMQciIEG1WbHscZcJs-155" vertex="1">
          <mxGeometry x="80" width="60" height="60" as="geometry" />
        </mxCell>
        <mxCell id="j2yMQciIEG1WbHscZcJs-158" value="" style="rounded=1;whiteSpace=wrap;html=1;" parent="1" vertex="1">
          <mxGeometry x="3400" y="530" width="320" height="60" as="geometry" />
        </mxCell>
        <mxCell id="j2yMQciIEG1WbHscZcJs-159" value="" style="group" parent="1" vertex="1" connectable="0">
          <mxGeometry x="3750" y="530" width="140" height="60" as="geometry" />
        </mxCell>
        <mxCell id="j2yMQciIEG1WbHscZcJs-160" value="" style="shape=image;html=1;verticalAlign=top;verticalLabelPosition=bottom;labelBackgroundColor=#ffffff;imageAspect=0;aspect=fixed;image=https://cdn4.iconfinder.com/data/icons/essentials-72/24/040_-_Tick-128.png" parent="j2yMQciIEG1WbHscZcJs-159" vertex="1">
          <mxGeometry y="2" width="58" height="58" as="geometry" />
        </mxCell>
        <mxCell id="j2yMQciIEG1WbHscZcJs-161" value="" style="shape=image;html=1;verticalAlign=top;verticalLabelPosition=bottom;labelBackgroundColor=#ffffff;imageAspect=0;aspect=fixed;image=https://cdn1.iconfinder.com/data/icons/CrystalClear/128x128/actions/exit.png" parent="j2yMQciIEG1WbHscZcJs-159" vertex="1">
          <mxGeometry x="80" width="60" height="60" as="geometry" />
        </mxCell>
        <mxCell id="j2yMQciIEG1WbHscZcJs-162" value="" style="endArrow=classic;html=1;rounded=0;exitX=0.5;exitY=1;exitDx=0;exitDy=0;entryX=-0.004;entryY=0.073;entryDx=0;entryDy=0;entryPerimeter=0;" parent="1" source="j2yMQciIEG1WbHscZcJs-134" target="j2yMQciIEG1WbHscZcJs-137" edge="1">
          <mxGeometry width="50" height="50" relative="1" as="geometry">
            <mxPoint x="3200" y="160" as="sourcePoint" />
            <mxPoint x="3250" y="110" as="targetPoint" />
          </mxGeometry>
        </mxCell>
      </root>
    </mxGraphModel>
  </diagram>
</mxfile>
